<?xml version="1.0" encoding="utf-8"?>
<!-- Generator: Adobe Illustrator 23.0.3, SVG Export Plug-In . SVG Version: 6.00 Build 0)  -->
<svg version="1.1" id="Capa_1" xmlns="http://www.w3.org/2000/svg" xmlns:xlink="http://www.w3.org/1999/xlink" x="0px" y="0px"
	 viewBox="0 0 22 23" style="enable-background:new 0 0 22 23;" xml:space="preserve">
<style type="text/css">
	.st0{fill-rule:evenodd;clip-rule:evenodd;fill:#F6464A;}
</style>
<path id="star" class="st0" d="M19.6,3.7c0.2,0.4,0.3,0.8,0.4,1.2s0.3,0.7,0.5,1c0.2,0.4,0.4,0.7,0.7,1c0.3,0.3,0.5,0.6,0.7,1
	c-0.5,0.2-1.2,0.5-2,0.8s-1.7,0.7-2.5,1.1s-1.7,0.7-2.4,1s-1.2,0.6-1.5,0.7c0.3,0.2,0.8,0.4,1.5,0.7s1.5,0.7,2.4,1
	c0.9,0.4,1.7,0.7,2.5,1.1c0.8,0.4,1.5,0.6,2,0.8c-0.2,0.3-0.5,0.6-0.7,1c-0.2,0.3-0.5,0.6-0.7,1s-0.4,0.7-0.5,1.1s-0.3,0.8-0.4,1.2
	c-0.4-0.4-1-0.8-1.7-1.4s-1.5-1.2-2.2-1.7c-0.7-0.6-1.4-1.1-2.1-1.6c-0.6-0.5-1.1-0.8-1.4-0.9c0,0.4,0,0.9,0.1,1.7s0.2,1.7,0.3,2.6
	s0.2,1.9,0.4,2.8s0.3,1.6,0.4,2.2c-1.6-0.4-3.2-0.4-4.7,0c0.1-0.6,0.2-1.3,0.4-2.2c0.1-0.9,0.3-1.8,0.4-2.8c0.1-0.9,0.2-1.8,0.3-2.6
	c0.1-0.8,0.1-1.4,0.1-1.7c-0.3,0.2-0.7,0.5-1.4,1s-1.4,1-2.1,1.6c-0.7,0.6-1.6,1-2.3,1.6s-1.3,1-1.7,1.4C2.2,19,2.1,18.6,2,18.2
	c-0.1-0.4-0.3-0.7-0.5-1c-0.2-0.4-0.4-0.7-0.7-1c-0.3-0.3-0.5-0.6-0.7-1c0.5-0.2,1.2-0.5,2-0.8s1.7-0.7,2.5-1.1s1.6-0.7,2.4-1
	s1.3-0.6,1.6-0.7c-0.3-0.2-0.8-0.4-1.6-0.7s-1.5-0.7-2.4-1S2.8,9,2,8.7S0.5,8,0,7.8c0.2-0.3,0.5-0.6,0.7-1c0.3-0.3,0.5-0.7,0.7-1
	s0.4-0.7,0.5-1C2,4.4,2.2,4.1,2.3,3.7C2.7,4,3.3,4.5,4,5.1s1.4,1.2,2.2,1.7c0.7,0.6,1.5,1.1,2.1,1.6s1.1,0.8,1.4,0.9
	c0-0.3,0-0.9-0.1-1.7S9.4,5.9,9.4,5S9.1,3.1,9,2.2S8.7,0.6,8.6,0c1.6,0.4,3.2,0.4,4.7,0c-0.1,0.6-0.2,1.3-0.4,2.2
	C12.8,3.1,12.6,4,12.5,5s-0.2,1.8-0.3,2.6s0,1.4,0,1.7c0.3-0.2,0.7-0.5,1.4-0.9c0.6-0.5,1.3-1,2.1-1.6c0.7-0.6,1.5-1.2,2.2-1.7
	C18.6,4.5,19.2,4,19.6,3.7z"/>
</svg>
